<svg width="23" height="20" viewBox="0 0 23 20" fill="none" xmlns="http://www.w3.org/2000/svg">
<path d="M0.524218 10.6628L8.96172 19.1003C9.13763 19.2762 9.37622 19.3751 9.625 19.3751C9.87378 19.3751 10.1124 19.2762 10.2883 19.1003C10.4642 18.9244 10.563 18.6858 10.563 18.437C10.563 18.1883 10.4642 17.9497 10.2883 17.7738L3.45039 10.937H21.8125C22.0611 10.937 22.2996 10.8383 22.4754 10.6625C22.6512 10.4866 22.75 10.2482 22.75 9.99955C22.75 9.75091 22.6512 9.51245 22.4754 9.33663C22.2996 9.16082 22.0611 9.06205 21.8125 9.06205H3.45039L10.2883 2.22533C10.4642 2.04941 10.563 1.81082 10.563 1.56204C10.563 1.31327 10.4642 1.07468 10.2883 0.898763C10.1124 0.72285 9.87378 0.624023 9.625 0.624023C9.37622 0.624023 9.13763 0.72285 8.96172 0.898763L0.524218 9.33626C0.437054 9.42333 0.367903 9.52673 0.320724 9.64054C0.273546 9.75435 0.249264 9.87634 0.249264 9.99955C0.249264 10.1227 0.273546 10.2447 0.320724 10.3586C0.367903 10.4724 0.437054 10.5758 0.524218 10.6628Z" fill="#090909"/>
</svg>
