<svg width="29" height="21" viewBox="0 0 29 21" fill="none" xmlns="http://www.w3.org/2000/svg">
<path d="M28.2961 1.92059L10.2961 19.9206C10.1916 20.0252 10.0675 20.1082 9.93094 20.1648C9.79437 20.2214 9.64798 20.2505 9.50014 20.2505C9.35229 20.2505 9.2059 20.2214 9.06933 20.1648C8.93276 20.1082 8.80868 20.0252 8.7042 19.9206L0.8292 12.0456C0.618104 11.8345 0.499512 11.5482 0.499512 11.2496C0.499512 10.9511 0.618104 10.6648 0.8292 10.4537C1.0403 10.2426 1.3266 10.124 1.62514 10.124C1.92367 10.124 2.20998 10.2426 2.42107 10.4537L9.50014 17.5342L26.7042 0.328711C26.9153 0.117615 27.2016 -0.000976565 27.5001 -0.000976562C27.7987 -0.00097656 28.085 0.117615 28.2961 0.328711C28.5072 0.539807 28.6258 0.826114 28.6258 1.12465C28.6258 1.42318 28.5072 1.70949 28.2961 1.92059Z" fill="white"/>
</svg>
