<svg width="343" height="343" viewBox="0 0 343 343" fill="none" xmlns="http://www.w3.org/2000/svg">
<path d="M171.5 0C76.9473 0 0.00292969 76.9294 0.00292969 171.494C0.00292969 266.058 76.9423 343 171.5 343C266.074 343 342.997 266.064 342.997 171.494C342.997 76.9294 266.079 0 171.5 0ZM245.723 136.357L155.905 226.175C153.208 228.869 149.654 230.229 146.133 230.229C142.584 230.229 139.063 228.87 136.358 226.175L97.2945 187.112C91.8937 181.707 91.8937 172.963 97.2945 167.563C102.694 162.164 111.438 162.164 116.839 167.563L146.133 196.867L226.191 116.805C231.58 111.411 240.323 111.411 245.723 116.805C251.124 122.213 251.124 130.957 245.723 136.357Z" fill="#F29714"/>
</svg>
