<svg width="825" height="190" viewBox="0 0 825 190" fill="none" xmlns="http://www.w3.org/2000/svg">
<path d="M42.9191 141.978H23.9591" stroke="white" stroke-width="10" stroke-miterlimit="10" stroke-linecap="round" stroke-linejoin="round"/>
<path d="M42.7963 179.64C53.2013 179.641 61.6371 171.211 61.6382 160.811C61.6392 150.411 53.2051 141.979 42.8 141.978" stroke="white" stroke-width="10" stroke-miterlimit="10" stroke-linecap="round" stroke-linejoin="round"/>
<path d="M23.9591 179.881H42.9191" stroke="white" stroke-width="10" stroke-miterlimit="10" stroke-linecap="round" stroke-linejoin="round"/>
<path d="M23.8391 141.978C13.4341 141.978 4.99911 150.409 4.99911 160.809C4.99911 171.209 13.4341 179.641 23.8391 179.641" stroke="white" stroke-width="10" stroke-miterlimit="10" stroke-linecap="round" stroke-linejoin="round"/>
<path d="M431.7 29.4686L422.58 75.7676" stroke="white" stroke-width="10" stroke-miterlimit="10" stroke-linecap="round" stroke-linejoin="round"/>
<path d="M468.55 36.5417C470.536 26.3314 463.867 16.4457 453.654 14.4613C443.441 12.4769 433.552 19.1452 431.565 29.3555" stroke="white" stroke-width="10" stroke-miterlimit="10" stroke-linecap="round" stroke-linejoin="round"/>
<path d="M459.778 82.9648L468.658 36.6659" stroke="white" stroke-width="10" stroke-miterlimit="10" stroke-linecap="round" stroke-linejoin="round"/>
<path d="M422.687 75.6517C420.7 85.8619 427.369 95.7476 437.582 97.732C447.795 99.7165 457.685 93.0481 459.671 82.8379" stroke="white" stroke-width="10" stroke-miterlimit="10" stroke-linecap="round" stroke-linejoin="round"/>
<path d="M779.682 92.4403C779.682 66.4064 758.569 45.3018 732.524 45.3018C706.48 45.3018 685.367 66.4064 685.367 92.4403C685.367 118.474 706.48 139.579 732.524 139.579C758.569 139.579 779.682 118.474 779.682 92.4403Z" stroke="white" stroke-width="10" stroke-miterlimit="10" stroke-linecap="round" stroke-linejoin="round"/>
<path d="M645.049 92.4406C645.049 140.733 684.213 179.881 732.524 179.881C780.836 179.881 820 140.733 820 92.4406C820 44.1487 780.836 5.00032 732.524 5.00032C684.213 5.00032 645.049 44.1487 645.049 92.4406Z" stroke="white" stroke-width="10" stroke-miterlimit="10" stroke-linecap="round" stroke-linejoin="round"/>
<path d="M510.175 160.689L532.254 47.4609" stroke="white" stroke-width="10" stroke-miterlimit="10" stroke-linecap="round" stroke-linejoin="round"/>
<path d="M463.814 151.741C461.321 164.553 469.689 176.957 482.504 179.448C495.319 181.938 507.728 173.57 510.221 160.759" stroke="white" stroke-width="10" stroke-miterlimit="10" stroke-linecap="round" stroke-linejoin="round"/>
<path d="M485.696 38.3447L463.857 151.573" stroke="white" stroke-width="10" stroke-miterlimit="10" stroke-linecap="round" stroke-linejoin="round"/>
<path d="M532.058 47.2927C534.551 34.4811 526.183 22.0767 513.368 19.5867C500.553 17.0966 488.143 25.4638 485.651 38.2754" stroke="white" stroke-width="10" stroke-miterlimit="10" stroke-linecap="round" stroke-linejoin="round"/>
<path d="M184.511 123.146C184.511 112.746 176.077 104.314 165.672 104.314C155.268 104.314 146.833 112.746 146.833 123.146C146.833 133.546 155.268 141.977 165.672 141.977C176.077 141.977 184.511 133.546 184.511 123.146Z" stroke="white" stroke-width="10" stroke-miterlimit="10" stroke-linecap="round" stroke-linejoin="round"/>
<path d="M108.915 123.147C108.915 154.48 134.326 179.881 165.672 179.881C197.018 179.881 222.429 154.48 222.429 123.147C222.429 91.8132 197.018 66.4124 165.672 66.4124C134.326 66.4124 108.915 91.8132 108.915 123.147Z" stroke="white" stroke-width="10" stroke-miterlimit="10" stroke-linecap="round" stroke-linejoin="round"/>
<path d="M36.9185 113.671H83.9561" stroke="white" stroke-width="10" stroke-miterlimit="10" stroke-linecap="round" stroke-linejoin="round"/>
<path d="M36.7985 76.008C26.3934 76.008 17.9585 84.4391 17.9585 94.8395C17.9585 105.24 26.3934 113.671 36.7985 113.671" stroke="white" stroke-width="10" stroke-miterlimit="10" stroke-linecap="round" stroke-linejoin="round"/>
<path d="M83.9561 76.0078H36.9185" stroke="white" stroke-width="10" stroke-miterlimit="10" stroke-linecap="round" stroke-linejoin="round"/>
<path d="M84.0742 113.671C94.4793 113.672 102.915 105.241 102.916 94.8411C102.917 84.4408 94.483 76.0089 84.078 76.0078" stroke="white" stroke-width="10" stroke-miterlimit="10" stroke-linecap="round" stroke-linejoin="round"/>
<path d="M411.3 132.502C411.3 127.269 407.056 123.026 401.82 123.026C396.584 123.026 392.34 127.269 392.34 132.502C392.34 137.735 396.584 141.978 401.82 141.978C407.056 141.978 411.3 137.735 411.3 132.502Z" stroke="white" stroke-width="10" stroke-miterlimit="10" stroke-linecap="round" stroke-linejoin="round"/>
<path d="M413.69 86.8764C391.812 81.1812 368.972 91.8084 359.247 112.208C349.523 132.608 355.65 157.04 373.852 170.446C392.054 183.853 417.21 182.461 433.816 167.128C450.421 151.796 453.802 126.838 441.877 107.636" stroke="white" stroke-width="10" stroke-miterlimit="10" stroke-linecap="round" stroke-linejoin="round"/>
<path d="M413.761 86.7984C417.252 99.4573 428.961 108.081 442.089 107.661" stroke="white" stroke-width="10" stroke-miterlimit="10" stroke-linecap="round" stroke-linejoin="round"/>
<path d="M596.045 160.756C598.536 173.568 610.945 181.937 623.76 179.448C636.575 176.959 644.944 164.556 642.453 151.744" stroke="white" stroke-width="10" stroke-miterlimit="10" stroke-linecap="round" stroke-linejoin="round"/>
<path d="M574.012 47.4609L596.091 160.689" stroke="white" stroke-width="10" stroke-miterlimit="10" stroke-linecap="round" stroke-linejoin="round"/>
<path d="M620.376 38.2777C617.885 25.4659 605.476 17.0973 592.661 19.586C579.846 22.0747 571.477 34.4782 573.968 47.29" stroke="white" stroke-width="10" stroke-miterlimit="10" stroke-linecap="round" stroke-linejoin="round"/>
<path d="M642.409 151.573L620.33 38.3447" stroke="white" stroke-width="10" stroke-miterlimit="10" stroke-linecap="round" stroke-linejoin="round"/>
<path d="M540.646 167.945C543.197 172.361 547.911 175.083 553.013 175.083C558.114 175.084 562.828 172.364 565.379 167.948" stroke="white" stroke-width="10" stroke-miterlimit="10" stroke-linecap="round" stroke-linejoin="round"/>
<path d="M526.734 143.417L540.894 167.886" stroke="white" stroke-width="10" stroke-miterlimit="10" stroke-linecap="round" stroke-linejoin="round"/>
<path d="M538.854 122.067C533.752 122.067 529.038 124.787 526.487 129.203C523.936 133.619 523.936 139.06 526.487 143.477" stroke="white" stroke-width="10" stroke-miterlimit="10" stroke-linecap="round" stroke-linejoin="round"/>
<path d="M567.292 122.307H538.974" stroke="white" stroke-width="10" stroke-miterlimit="10" stroke-linecap="round" stroke-linejoin="round"/>
<path d="M579.538 143.479C582.089 139.062 582.09 133.621 579.54 129.204C576.99 124.788 572.276 122.067 567.175 122.067" stroke="white" stroke-width="10" stroke-miterlimit="10" stroke-linecap="round" stroke-linejoin="round"/>
<path d="M565.373 167.886L579.533 143.417" stroke="white" stroke-width="10" stroke-miterlimit="10" stroke-linecap="round" stroke-linejoin="round"/>
<path d="M307.385 123.146C307.385 112.746 298.95 104.314 288.546 104.314C278.141 104.314 269.707 112.746 269.707 123.146C269.707 133.546 278.141 141.977 288.546 141.977C298.95 141.977 307.385 133.546 307.385 123.146Z" stroke="white" stroke-width="10" stroke-miterlimit="10" stroke-linecap="round" stroke-linejoin="round"/>
<path d="M231.789 123.147C231.789 154.48 257.2 179.881 288.546 179.881C319.892 179.881 345.303 154.48 345.303 123.147C345.303 91.8132 319.892 66.4124 288.546 66.4124C257.2 66.4124 231.789 91.8132 231.789 123.147Z" stroke="white" stroke-width="10" stroke-miterlimit="10" stroke-linecap="round" stroke-linejoin="round"/>
<path d="M54.4376 52.2588H186.671" stroke="white" stroke-width="10" stroke-miterlimit="10" stroke-linecap="round" stroke-linejoin="round"/>
<path d="M54.5575 5.00026C41.5021 5.00026 30.9187 15.5794 30.9187 28.6295C30.9187 41.6796 41.5021 52.2588 54.5575 52.2588" stroke="white" stroke-width="10" stroke-miterlimit="10" stroke-linecap="round" stroke-linejoin="round"/>
<path d="M186.671 5H54.4376" stroke="white" stroke-width="10" stroke-miterlimit="10" stroke-linecap="round" stroke-linejoin="round"/>
<path d="M186.789 52.2585C199.844 52.2598 210.429 41.6817 210.43 28.6316C210.431 15.5815 199.849 5.00131 186.793 5" stroke="white" stroke-width="10" stroke-miterlimit="10" stroke-linecap="round" stroke-linejoin="round"/>
</svg>
