<svg width="54" height="54" viewBox="0 0 54 54" fill="none" xmlns="http://www.w3.org/2000/svg">
<rect width="54" height="54" rx="27" fill="#239E3E"/>
<path d="M38.9128 21.1003L23.9128 36.1003C23.8258 36.1875 23.7224 36.2566 23.6086 36.3038C23.4947 36.351 23.3727 36.3753 23.2495 36.3753C23.1263 36.3753 23.0043 36.351 22.8905 36.3038C22.7767 36.2566 22.6733 36.1875 22.5863 36.1003L16.0238 29.5378C15.8479 29.3619 15.749 29.1233 15.749 28.8745C15.749 28.6258 15.8479 28.3872 16.0238 28.2113C16.1997 28.0353 16.4383 27.9365 16.687 27.9365C16.9358 27.9365 17.1744 28.0353 17.3503 28.2113L23.2495 34.1117L37.5863 19.7738C37.7622 19.5978 38.0008 19.499 38.2495 19.499C38.4983 19.499 38.7369 19.5978 38.9128 19.7738C39.0887 19.9497 39.1876 20.1883 39.1876 20.437C39.1876 20.6858 39.0887 20.9244 38.9128 21.1003Z" fill="white"/>
</svg>
