<svg width="212" height="284" viewBox="0 0 212 284" fill="none" xmlns="http://www.w3.org/2000/svg">
<path d="M7.72793 205.691L8.69707 262.557C8.87344 274.205 18.5361 283.689 30.1828 283.689L122.257 283.646C134.279 283.646 143.924 273.836 143.742 261.807L143.565 250.646C145.032 250.646 192.895 250.646 190.992 250.646C202.198 250.646 211.286 241.557 211.286 230.351V125.088C211.286 113.925 202.198 104.837 190.992 104.837C190.122 104.837 147.435 104.837 149.786 104.837V102.499C149.786 92.3959 142.859 83.969 133.463 81.675V74.5729C133.463 69.0129 128.918 64.4695 123.36 64.4695H119.433V4.73379C119.433 0.91875 115.181 -0.778125 112.55 1.07168L107.147 4.73379H96.8654L91.4625 1.07168C89.9619 0.0568359 88.0213 0.0568359 86.5207 1.07168L81.1406 4.73379H70.8803L65.4768 1.07168C63.9773 0.0568359 62.0355 0.0568359 60.535 1.07168L55.1549 4.73379H44.9162L39.5361 1.07168C36.8502 -0.837305 32.6537 1.06582 32.6537 4.73379V64.4695H27.1389C21.5801 64.4695 17.0355 69.0129 17.0355 74.5729V81.9404C8.30039 84.5877 1.85918 92.6619 1.72676 102.192L0.711914 181.028C0.711914 186.235 2.1668 191.265 4.90312 195.677C6.75645 198.632 7.72793 202.072 7.72793 205.691ZM187.992 113.66H190.992C197.3 113.66 202.463 118.778 202.463 125.088V230.353C202.463 236.66 197.3 241.823 190.992 241.823H187.992V113.66ZM149.787 181.028V113.66H159.316V241.823H143.39L142.772 205.603C142.771 195.672 149.787 193.839 149.787 181.028ZM41.4773 13.0729L47.5652 17.2195C49.0658 18.2344 51.0064 18.2344 52.507 17.2195L63.0064 10.0717L73.551 17.2195C74.7645 18.1295 77.0414 18.3105 78.4916 17.2195L88.9922 10.0717L99.5355 17.2195C101.036 18.2344 102.977 18.2344 104.477 17.2195L110.609 13.0729V64.4695H41.4773V13.0729ZM10.551 102.323C10.6395 95.4404 16.3307 89.8371 23.2119 89.8371H128.3C135.271 89.8371 140.963 95.5283 140.963 102.499V181.028C140.963 191.19 133.948 192.632 133.948 205.691C134.343 228.628 133.229 163.992 134.918 261.984C134.962 265.382 133.683 268.602 131.3 271.028C128.874 273.499 125.697 274.823 122.256 274.823L30.1822 274.867C23.2998 274.867 17.608 269.264 17.5201 262.426L16.551 205.603C16.551 200.44 15.0949 195.412 12.3592 191C10.5064 187.999 9.53614 184.559 9.53614 181.116L10.551 102.323Z" fill="#090909"/>
<path d="M33.4918 171.677H116.962C122.961 171.677 127.728 166.705 127.728 160.911V112.25C127.684 106.294 122.874 101.485 116.962 101.485H33.4918C27.5809 101.485 22.7715 106.294 22.7715 112.25V160.911C22.7715 167.032 27.7818 171.677 33.4918 171.677ZM57.3148 133.471C59.0363 131.749 61.8148 131.749 63.5363 133.471L68.0809 137.971L79.9039 126.146C81.6254 124.427 84.4039 124.427 86.1682 126.146C87.8896 127.868 87.8896 130.646 86.1682 132.368L71.1688 147.322C69.4695 149.113 66.599 149.061 64.9473 147.322L57.3148 139.692C55.5945 137.971 55.5945 135.189 57.3148 133.471Z" fill="#090909"/>
<path d="M50.301 187.514H32.4334C30.5367 187.514 28.9922 189.058 28.9922 190.954V200.792C28.9922 202.689 30.5367 204.234 32.4334 204.234H50.301C52.1977 204.234 53.7422 202.689 53.7422 200.792V190.954C53.7422 189.058 52.1977 187.514 50.301 187.514Z" fill="#090909"/>
<path d="M84.1836 187.514H66.316C64.4193 187.514 62.876 189.058 62.876 190.954V200.792C62.876 202.689 64.4193 204.234 66.316 204.234H84.1836C86.0803 204.234 87.6248 202.689 87.6248 200.792V190.954C87.6248 189.058 86.0803 187.514 84.1836 187.514Z" fill="#090909"/>
<path d="M118.065 187.514H100.198C98.3002 187.514 96.7568 189.058 96.7568 190.954V200.792C96.7568 202.689 98.3002 204.234 100.198 204.234H118.065C119.963 204.234 121.506 202.689 121.506 200.792V190.954C121.506 189.058 119.963 187.514 118.065 187.514Z" fill="#090909"/>
<path d="M50.301 215.926H32.4334C30.5367 215.926 28.9922 217.47 28.9922 219.366V229.161C28.9922 231.059 30.5367 232.601 32.4334 232.601H50.301C52.1977 232.601 53.7422 231.059 53.7422 229.161V219.366C53.7422 217.47 52.1977 215.926 50.301 215.926Z" fill="#090909"/>
<path d="M84.1836 215.926H66.316C64.4193 215.926 62.876 217.47 62.876 219.366V229.161C62.876 231.059 64.4193 232.601 66.316 232.601H84.1836C86.0803 232.601 87.6248 231.059 87.6248 229.161V219.366C87.6248 217.47 86.0803 215.926 84.1836 215.926Z" fill="#090909"/>
<path d="M118.065 215.926H100.198C98.3002 215.926 96.7568 217.47 96.7568 219.366V229.161C96.7568 231.059 98.3002 232.601 100.198 232.601H118.065C119.963 232.601 121.506 231.059 121.506 229.161V219.366C121.506 217.47 119.963 215.926 118.065 215.926Z" fill="#090909"/>
<path d="M50.301 244.294H32.4334C30.5367 244.294 28.9922 245.836 28.9922 247.734V257.529C28.9922 259.47 30.5367 260.969 32.4334 260.969H50.301C52.1977 260.969 53.7422 259.47 53.7422 257.529V247.734C53.7422 245.837 52.1977 244.294 50.301 244.294Z" fill="#090909"/>
<path d="M84.1836 244.294H66.316C64.4193 244.294 62.876 245.836 62.876 247.734V257.529C62.876 259.47 64.4193 260.969 66.316 260.969H84.1836C86.0803 260.969 87.6248 259.47 87.6248 257.529V247.734C87.6248 245.837 86.0803 244.294 84.1836 244.294Z" fill="#090909"/>
<path d="M118.065 244.294H100.198C98.3002 244.294 96.7568 245.836 96.7568 247.734V257.529C96.7568 259.47 98.3002 260.969 100.198 260.969H118.065C119.963 260.969 121.506 259.47 121.506 257.529V247.734C121.506 245.837 119.963 244.294 118.065 244.294Z" fill="#090909"/>
<path d="M95.3014 44.5732H56.7426C54.3156 44.5732 52.3311 46.5572 52.3311 48.9848C52.3311 51.4105 54.3162 53.3963 56.7426 53.3963H95.3014C97.7283 53.3963 99.7129 51.41 99.7129 48.9848C99.7129 46.5572 97.7277 44.5732 95.3014 44.5732Z" fill="#090909"/>
<path d="M95.3014 25.3818H56.7426C54.3156 25.3818 52.3311 27.3682 52.3311 29.7934C52.3311 32.2643 54.3162 34.2049 56.7426 34.2049H95.3014C97.7283 34.2049 99.7129 32.2643 99.7129 29.7934C99.7129 27.3682 97.7277 25.3818 95.3014 25.3818Z" fill="#090909"/>
</svg>
