<svg width="300" height="300" viewBox="0 0 300 300" fill="none" xmlns="http://www.w3.org/2000/svg">
<g clip-path="url(#clip0_4054_12939)">
<path d="M25 30V70C25 72.7612 27.2387 75 30 75H70C72.7612 75 75 72.7612 75 70V30C75 27.2387 72.7612 25 70 25H30C27.2387 25 25 27.2387 25 30ZM35 35H65V65H35V35Z" fill="#090909"/>
<path d="M230 75H270C272.761 75 275 72.7612 275 70V30C275 27.2387 272.761 25 270 25H230C227.239 25 225 27.2387 225 30V70C225 72.7612 227.239 75 230 75ZM235 35H265V65H235V35Z" fill="#090909"/>
<path d="M70 225H30C27.2387 225 25 227.239 25 230V270C25 272.761 27.2387 275 30 275H70C72.7612 275 75 272.761 75 270V230C75 227.239 72.7612 225 70 225ZM65 265H35V235H65V265Z" fill="#090909"/>
<path d="M55 45H45V55H55V45Z" fill="#090909"/>
<path d="M10 10H50V0H5C2.23875 0 0 2.23875 0 5V50H10V10Z" fill="#090909"/>
<path d="M10 250H0V295C0 297.761 2.23875 300 5 300H50V290H10V250Z" fill="#090909"/>
<path d="M295 0H250V10H290V50H300V5C300 2.23875 297.761 0 295 0Z" fill="#090909"/>
<path d="M290 290H260V300H295C297.761 300 300 297.761 300 295V250H290V290Z" fill="#090909"/>
<path d="M255 45H245V55H255V45Z" fill="#090909"/>
<path d="M55 245H45V255H55V245Z" fill="#090909"/>
<path d="M95 45H85V55H95V45Z" fill="#090909"/>
<path d="M165 45H155V55H165V45Z" fill="#090909"/>
<path d="M175 45V65H195V55H185V45H175Z" fill="#090909"/>
<path d="M105 45V55H115V45V35H195V45H205V35V25H95V35H105V45Z" fill="#090909"/>
<path d="M95 65H85V85H95V65Z" fill="#090909"/>
<path d="M105 85H95V95H105V85Z" fill="#090909"/>
<path d="M105 65V75H115V85H135V65H140V55H145V45H125V55H130V65H105Z" fill="#090909"/>
<path d="M155 75H145V85H155V75Z" fill="#090909"/>
<path d="M200 125H210V115H220V105H200V125Z" fill="#090909"/>
<path d="M165 65H155V75H165V65Z" fill="#090909"/>
<path d="M125 235V225H115V215H105V235H125Z" fill="#090909"/>
<path d="M215 55H205V65H215V55Z" fill="#090909"/>
<path d="M220 75H200V95H220V75Z" fill="#090909"/>
<path d="M25 205H35V165H45V155H25V205Z" fill="#090909"/>
<path d="M75 85H25V95H75V85Z" fill="#090909"/>
<path d="M45 105H25V135H35V125H45V105Z" fill="#090909"/>
<path d="M125 155V145H135V125H145V115H155V105H145V95H135V105V115H125V105H105V125H115V155H125Z" fill="#090909"/>
<path d="M85 275H95V265H110V275H120V265H125V255H95V245H85V275Z" fill="#090909"/>
<path d="M190 170V160H200V150H210V130H180V150H170V160H180V170H190Z" fill="#090909"/>
<path d="M175 110H185V100H175V90H165V120H175V110Z" fill="#090909"/>
<path d="M75 105H55V115H75V105Z" fill="#090909"/>
<path d="M95 105H85V115H95V105Z" fill="#090909"/>
<path d="M65 155H55V165H65V155Z" fill="#090909"/>
<path d="M95 165H85V175H95V165Z" fill="#090909"/>
<path d="M105 155H95V165H105V155Z" fill="#090909"/>
<path d="M105 235H95V245H105V235Z" fill="#090909"/>
<path d="M55 135H45V145H55V135Z" fill="#090909"/>
<path d="M75 125H55V135H75V125Z" fill="#090909"/>
<path d="M85 135H75V145H85V135Z" fill="#090909"/>
<path d="M165 130H155V140H165V130Z" fill="#090909"/>
<path d="M155 140H145V150H155V140Z" fill="#090909"/>
<path d="M170 165H160V175H170V165Z" fill="#090909"/>
<path d="M245 155H225V165H245V155Z" fill="#090909"/>
<path d="M255 165H245V175H255V165Z" fill="#090909"/>
<path d="M150 165H140V175H150V165Z" fill="#090909"/>
<path d="M135 165H115V175H105V185H125V175H135V165Z" fill="#090909"/>
<path d="M145 265H135V275H155V265H165V255H145V265Z" fill="#090909"/>
<path d="M195 255V265H185V275H205V265H215V255H195Z" fill="#090909"/>
<path d="M240 105V95H250V85H230V95H220V105H240Z" fill="#090909"/>
<path d="M160 200H150V210H160V200Z" fill="#090909"/>
<path d="M160 220H150V230H160V220Z" fill="#090909"/>
<path d="M145 245H135V255H145V245Z" fill="#090909"/>
<path d="M140 200V190H130V200V210H140V200Z" fill="#090909"/>
<path d="M170 230H160V240H170V230Z" fill="#090909"/>
<path d="M235 265H215V275H245V255H235V265Z" fill="#090909"/>
<path d="M245 235H235V245H245V235Z" fill="#090909"/>
<path d="M225 235H215V245H225V235Z" fill="#090909"/>
<path d="M205 235H195V245H205V235Z" fill="#090909"/>
<path d="M215 225H205V235H215V225Z" fill="#090909"/>
<path d="M185 255H175V265H185V255Z" fill="#090909"/>
<path d="M95 145H85V155H95V145Z" fill="#090909"/>
<path d="M265 275H275V245H255V255H265V275Z" fill="#090909"/>
<path d="M265 225H255V235H265V225Z" fill="#090909"/>
<path d="M275 185H265V205H255V215H275V185Z" fill="#090909"/>
<path d="M275 165H265V175H275V165Z" fill="#090909"/>
<path d="M275 85H265V130H245V120H225V140H265V155H275V85Z" fill="#090909"/>
<path d="M200 220V200H190V180H160V200H170V220H200Z" fill="#090909"/>
<path d="M85 175H45V215H65V205H55V195H75V225H85V215H105V205H95V195H105V185H85V175Z" fill="#090909"/>
<path d="M255 185H235V175H215V195H225V225H235V215H245V195H255V185Z" fill="#090909"/>
</g>
<defs>
<clipPath id="clip0_4054_12939">
<rect width="300" height="300" fill="white"/>
</clipPath>
</defs>
</svg>
