<svg width="277" height="277" viewBox="0 0 277 277" fill="none" xmlns="http://www.w3.org/2000/svg">
<path d="M138.725 0.299805C62.45 0.299805 0.424988 62.3248 0.424988 138.525C0.424988 214.725 62.45 276.75 138.65 276.75C214.85 276.75 276.875 214.725 276.875 138.525C276.875 62.3248 214.925 0.299805 138.725 0.299805ZM138.725 239.55C128.975 239.55 121.025 231.6 121.025 221.85C121.025 212.1 128.975 204.15 138.725 204.15C148.475 204.15 156.425 212.1 156.425 221.85C156.425 231.6 148.475 239.55 138.725 239.55ZM164.075 67.1248L148.025 175.275C147.275 180.45 143.3 184.2 138.65 184.2C134 184.2 130.025 180.45 129.275 175.275L113.225 67.1248C112.025 59.0248 114.275 50.6998 119.3 44.8498C123.35 40.1248 128.825 37.4998 134.6 37.4998H142.625C148.4 37.4998 153.875 40.1248 157.925 44.8498C163.025 50.6998 165.275 59.0248 164.075 67.1248Z" fill="white"/>
</svg>
